Coordinates
version=1
nRows=10
nColumns=40
inDegrees=yes

Units are S.I. units (second, meters, Newtons, ...)
Angles are in degrees.

endheader
time	pelvis_tilt	pelvis_list	pelvis_rotation	pelvis_tx	pelvis_ty	pelvis_tz	hip_flexion_r	hip_adduction_r	hip_rotation_r	knee_angle_r	knee_angle_r_beta	ankle_angle_r	subtalar_angle_r	mtp_angle_r	hip_flexion_l	hip_adduction_l	hip_rotation_l	knee_angle_l	knee_angle_l_beta	ankle_angle_l	subtalar_angle_l	mtp_angle_l	lumbar_extension	lumbar_bending	lumbar_rotation	arm_flex_r	arm_add_r	arm_rot_r	elbow_flex_r	pro_sup_r	wrist_flex_r	wrist_dev_r	arm_flex_l	arm_add_l	arm_rot_l	elbow_flex_l	pro_sup_l	wrist_flex_l	wrist_dev_l
     38.89000000	     -2.74661294	     -4.91589525	      1.27462841	      1.10629106	      0.92969283	      0.48024058	     12.06716661	      2.54235261	    -13.85746341	     18.58893432	     18.58893432	     10.85864600	     -0.69758757	     -3.69972918	     29.54223969	    -14.25986991	      0.88102866	     63.51987469	     63.51987469	      7.48566543	    -18.37921990	     11.84198775	     -9.86127734	      5.91568105	      1.83928839	     18.39504199	    -19.03049657	     -0.00924511	     60.54366095	     45.67759802	      0.00000000	      0.00000000	      2.31059652	     -9.99811561	     -3.63827583	     31.41077027	     45.59111064	      0.00000000	      0.00000000
     38.90342857	     -2.82343769	     -4.80325644	      1.83404204	      1.10483278	      0.93034637	      0.48053658	     11.53184135	      2.51138653	    -14.11156281	     18.01489879	     18.01489879	     10.94994709	     -0.85104679	     -3.63152909	     30.60056355	    -14.15563937	      0.63288251	     61.08550104	     61.08550104	      8.03210455	    -18.63243852	     11.98295333	     -9.81556023	      5.71657315	      1.84625819	     20.11685223	    -19.26921120	     -0.31143946	     61.78461102	     45.65259784	      0.00000000	      0.00000000	      1.50643954	     -9.58573613	     -3.49408369	     31.07154452	     45.56197084	      0.00000000	      0.00000000
     38.91685714	     -2.79273667	     -4.78685900	      2.44620544	      1.10344950	      0.93110215	      0.48077353	     10.68346982	      2.65285514	    -14.39047723	     17.02936516	     17.02936516	     10.79012359	     -1.05897426	     -4.01955012	     31.37231140	    -14.08480632	      0.40644194	     58.32701105	     58.32701105	      8.52073711	    -18.71019716	     12.11218471	    -10.04097419	      5.71727261	      1.75957329	     21.24096722	    -19.60175698	     -0.73598887	     65.30602318	     45.54192569	      0.00000000	      0.00000000	      0.43941612	     -9.30036439	     -2.96371476	     31.33827516	     45.50161643	      0.00000000	      0.00000000
     38.93028571	     -2.77411740	     -4.67208719	      3.03026902	      1.10210531	      0.93181316	      0.48084652	      9.90733927	      2.66330735	    -14.67729457	     16.18613839	     16.18613839	     10.80033889	     -1.18061729	     -3.95406783	     31.90812076	    -13.79115317	      0.14794319	     55.23057174	     55.23057174	      8.99873226	    -18.76534948	     12.36378071	    -10.14908864	      5.59344359	      1.56267339	     23.00399711	    -19.63534598	     -1.15899452	     66.91340520	     45.50921878	      0.00000000	      0.00000000	     -0.45634464	     -8.96355199	     -2.67912607	     31.00183460	     45.45574867	      0.00000000	      0.00000000
     38.94371429	     -2.86637642	     -4.57038228	      3.57356577	      1.10059223	      0.93222664	      0.48081060	      9.38053728	      2.65218804	    -14.91977262	     15.55958510	     15.55958510	     10.83193518	     -1.30220718	     -3.98007307	     32.40102415	    -13.38963011	     -0.03087417	     51.88505788	     51.88505788	      9.37502710	    -18.68447771	     12.59076219	    -10.19260727	      5.45392264	      1.55966080	     24.60917045	    -19.85438819	     -1.56927526	     68.41652197	     45.47965889	      0.00000000	      0.00000000	     -1.25934051	     -8.62258174	     -2.44130033	     30.84495737	     45.41501012	      0.00000000	      0.00000000
     38.95714286	     -3.07005138	     -4.46832287	      4.10203714	      1.09899409	      0.93228549	      0.48049359	      9.05490719	      2.59032249	    -15.17783725	     15.07878626	     15.07878626	     10.92172522	     -1.45248914	     -4.01806895	     32.89018497	    -12.85157283	     -0.09501802	     48.38670152	     48.38670152	      9.73471027	    -18.46590198	     12.79743041	    -10.09675698	      5.37092849	      1.66661447	     26.27302213	    -20.28210278	     -1.98648239	     69.61699587	     45.46161752	      0.00000000	      0.00000000	     -1.97896451	     -8.18471641	     -2.26221870	     30.70562718	     45.38070407	      0.00000000	      0.00000000
     38.97057143	     -3.07307101	     -4.40161176	      4.63761409	      1.09763728	      0.93254790	      0.48013443	      8.34090671	      2.63692682	    -15.44542711	     14.23960411	     14.23960411	     10.51665000	     -1.66976530	     -5.22797580	     32.84583688	    -12.30417050	     -0.09413858	     44.41992864	     44.41992864	      9.14447742	    -18.26471930	     10.58117828	    -10.30450437	      5.33359830	      2.04418263	     26.83497349	    -20.53270874	     -3.55112919	     73.10287975	     45.39564364	      0.00000000	      0.00000000	     -2.75265148	     -8.28988814	      0.38860736	     31.14826995	     45.09075463	      0.00000000	      0.00000000
     38.98400000	     -3.21797799	     -4.25514671	      5.13118116	      1.09611937	      0.93255197	      0.47948282	      8.00333777	      2.50006356	    -15.70418422	     13.87253800	     13.87253800	     10.65983010	     -1.77992534	     -5.24505308	     32.90099435	    -11.53046141	      0.11403931	     40.55917841	     40.55917841	      9.44199788	    -17.59823179	     10.81021816	    -10.29858781	      5.19507095	      2.04375444	     28.38701008	    -20.76137008	     -3.85389555	     74.11847786	     45.37928072	      0.00000000	      0.00000000	     -3.40169999	     -7.99835311	      0.53311025	     30.98850564	     45.06776084	      0.00000000	      0.00000000
     38.99742857	     -3.33475755	     -4.24443406	      5.64837786	      1.09465681	      0.93240181	      0.47866812	      7.55878029	      2.50183654	    -16.15049658	     13.34748295	     13.34748295	     10.66724118	     -1.55647130	     -5.48916295	     32.83558428	    -10.83365715	      0.59111429	     36.65418361	     36.65418361	      9.35482561	    -16.73852611	      9.90997584	    -10.36331206	      5.21575365	      1.82985850	     29.86537744	    -20.72055346	     -4.44046391	     75.86327087	     45.34796356	      0.00000000	      0.00000000	     -4.20714134	     -7.74430261	      0.85394954	     31.06915644	     45.03465816	      0.00000000	      0.00000000
     39.01085714	     -3.52912580	     -4.10276684	      6.07650680	      1.09325342	      0.93211926	      0.47770984	      7.33597470	      2.33075812	    -16.35546550	     13.12739797	     13.12739797	     10.87530255	     -1.74665278	     -5.60447829	     32.73464505	    -10.08757927	      0.80357755	     32.90041987	     32.90041987	      9.62381998	    -15.18287552	      9.99380913	    -10.25850851	      5.10475619	      2.01958582	     31.15616688	    -21.04280158	     -4.76774585	     76.54970096	     45.34247249	      0.00000000	      0.00000000	     -4.71235920	     -7.47942264	      0.96748023	     30.95169496	     45.01719039	      0.00000000	      0.00000000
